<?xml version="1.0" encoding="UTF-8" standalone="no"?>
<svg 
    role="img" 
    xmlns="http://www.w3.org/2000/svg" 
    width="1000mm"
    height="1000mm"
    viewBox="0 0 1000 1000"
    style="max-width:1.6em; height: auto;">
    
    <path 
        id="path" 
        style="opacity:1;vector-effect:none;fill:#000000;fill-opacity:1;"
        d="M 500 0C 224 0 0 224 0 500C 0 776 224 1000 500 1000C 776 1000 1000 776 1000 500C 1000 224 776 0 500 0C 500 0 500 0 500 0M 500 75C 735 75 925 265 925 500C 925 735 735 925 500 925C 265 925 75 735 75 500C 75 265 265 75 500 75C 500 75 500 75 500 75 M 500 303C 500 303 441 363 441 363C 441 363 500 363 500 363C 500 363 559 363 559 363C 559 363 500 303 500 303M 499 213C 510 212 519 216 527 223C 527 223 677 373 677 373C 687 384 690 400 685 414C 679 428 665 437 650 438C 650 438 538 438 538 438C 538 438 538 750 538 750C 538 764 531 776 519 783C 507 790 493 790 481 783C 469 776 462 764 463 750C 463 750 463 438 463 438C 463 438 350 438 350 438C 335 437 321 428 315 414C 310 400 313 384 323 373C 323 373 473 223 473 223C 480 217 490 213 499 213C 499 213 499 213 499 213"
        transform="rotate(270,500,500)">
    </path>    
</svg>