<?xml version="1.0" encoding="UTF-8" standalone="no"?>
<svg 
    role="img" 
    xmlns="http://www.w3.org/2000/svg" 
    width="1000mm"
    height="1000mm"
    viewBox="0 0 1000 1000"
    style="max-width:1.6em; height: auto;">
    
    <path 
        id="path" 
        style="opacity:1;vector-effect:none;fill:#000000;fill-opacity:1;"
        d=" M 736 260C 742 260 748 263 753 268C 753 268 968 482 968 482C 977 492 977 508 968 518C 968 518 753 732 753 732C 748 737 742 740 735 740C 729 740 722 737 718 732C 718 732 678 693 678 693C 673 688 671 682 671 675C 671 668 673 662 678 657C 678 657 818 518 818 518C 827 508 827 492 818 482C 818 482 678 343 678 343C 673 338 671 332 671 325C 671 318 673 312 678 307C 678 307 718 268 718 268C 722 263 728 260 735 260C 735 260 735 260 736 260C 736 260 736 260 736 260M 264 260C 265 260 265 260 265 260C 272 260 278 263 282 268C 282 268 322 307 322 307C 327 312 329 318 329 325C 329 332 327 338 322 343C 322 343 182 482 182 482C 173 492 173 508 182 518C 182 518 322 657 322 657C 327 662 329 668 329 675C 329 682 327 688 322 693C 322 693 282 732 282 732C 278 737 271 740 265 740C 258 740 252 737 247 732C 247 732 32 518 32 518C 23 508 23 492 32 482C 32 482 247 268 247 268C 252 263 258 260 264 260C 264 260 264 260 264 260M 569 150C 569 150 617 150 617 150C 625 150 632 154 637 160C 642 166 643 174 641 182C 641 182 455 832 455 832C 452 843 442 850 431 850C 431 850 383 850 383 850C 375 850 368 846 363 840C 358 834 357 826 359 818C 359 818 545 168 545 168C 548 157 558 150 569 150C 569 150 569 150 569 150"
        transform="">
    </path>    
</svg>