<?xml version="1.0" encoding="UTF-8" standalone="no"?>
<svg 
    role="img" 
    xmlns="http://www.w3.org/2000/svg" 
    width="1000mm"
    height="1000mm"
    viewBox="0 0 1000 1000"
    style="max-width:1.6em; height: auto;">
    
    <path 
        id="path" 
        style="opacity:1;vector-effect:none;fill:#000000;fill-opacity:1;"
        d=" M 526 223C 526 223 526 223 526 223C 526 223 526 223 527 223C 527 223 727 423 727 423C 742 438 742 462 727 477C 712 492 688 492 673 477C 673 477 538 341 538 341C 538 341 538 750 538 750C 538 771 522 788 501 788C 480 789 463 771 463 750C 463 750 463 340 463 340C 463 340 327 477 327 477C 312 492 288 492 273 477C 258 462 258 438 273 423C 273 423 469 228 469 228C 476 218 488 212 500 212C 509 212 519 216 526 223C 526 223 526 223 526 223"
        transform="rotate(90,500,500)">
    </path>    
</svg>